<?xml version="1.0" standalone="no"?>
<!DOCTYPE svg PUBLIC "-//W3C//DTD SVG 20010904//EN"
 "http://www.w3.org/TR/2001/REC-SVG-20010904/DTD/svg10.dtd">
<svg version="1.0" xmlns="http://www.w3.org/2000/svg"
 width="200.000000pt" height="200.000000pt" viewBox="0 0 200.000000 200.000000"
 preserveAspectRatio="xMidYMid meet">
<metadata>
Created by potrace 1.14, written by Peter Selinger 2001-2017
</metadata>
<g transform="translate(0.000000,200.000000) scale(0.100000,-0.100000)"
fill="#000000" stroke="none">
<path d="M934 1875 c-21 -30 -44 -55 -51 -55 -6 0 -36 -35 -66 -77 -29 -43
-75 -108 -100 -145 l-47 -67 0 -210 0 -211 -35 -45 c-19 -26 -40 -52 -47 -60
-7 -7 -52 -62 -99 -121 l-86 -109 0 -163 c0 -89 4 -165 8 -168 5 -3 15 -2 22
3 6 4 17 8 22 9 6 1 55 18 109 38 55 20 101 36 103 36 2 0 3 -31 3 -70 0 -63
2 -70 20 -70 11 0 20 -4 20 -10 0 -5 20 -10 45 -10 25 0 45 -3 46 -7 6 -84 33
-139 112 -226 16 -17 39 -45 51 -60 l22 -28 50 58 c103 120 134 173 134 228 0
36 8 41 62 36 9 -1 19 3 23 9 3 5 15 10 26 10 17 0 19 7 19 65 l0 64 126 -44
c69 -25 127 -45 130 -45 2 0 4 75 4 168 l0 168 -130 161 -130 161 0 209 0 209
-101 144 c-56 79 -103 150 -106 157 -3 7 -13 13 -23 13 -11 0 -33 22 -55 55
-20 30 -37 55 -39 55 -1 0 -20 -25 -42 -55z"/>
</g>
</svg>
